{"title":"When We Were Kings (1996)","uid":5266312,"size":1516515397,"categoryP":"video","categoryS":"movies","magnet":"?xt=urn:btih:7c5ab4df6802b7e48253c815882e4c5bb4dce9d7&amp;dn=When+We+Were+Kings+%281996%29&amp;tr=udp%3A%2F%2Ftracker.openbittorrent.com%3A80&amp;tr=udp%3A%2F%2Fopen.demonii.com%3A1337&amp;tr=udp%3A%2F%2Ftracker.coppersurfer.tk%3A6969&amp;tr=udp%3A%2F%2Fexodus.desync.com%3A6969","seeders":25,"leechers":6,"uploader":"Beebe85","files":-1,"time":1262894936,"description":"Complete name                     WHEN WE WERE KINGS (WIDESCREEN) (1996)\nFormat                           : AVI\nFormat/Info                      : Audio Video Interleave\nFile size                        : 1.34 GiB\nDuration                         : 1h 27mn\nOverall bit rate                 : 2 192 Kbps\nMovie name                       : WHEN_WE_WERE_KINGS_WIDESCREEN.Title9.DVDRip\nWriting application              : Lavf52.33.0\nOriginal source form/Name        : WHEN_WE_WERE_KINGS_WIDESCREEN\n\nVideo\nID                               : 0\nFormat                           : MPEG-4 Visual\nFormat profile                   : Simple@L3\nFormat settings, BVOP            : No\nFormat settings, QPel            : No\nFormat settings, GMC             : No warppoints\nFormat settings, Matrix          : Default (H.263)\nCodec ID                         : XVID\nCodec ID/Hint                    : XviD\nDuration                         : 1h 27mn\nBit rate                         : 1 989 Kbps\nWidth                            : 624 pixels\nHeight                           : 342 pixels\nDisplay aspect ratio             : 16:9\nFrame rate                       : 23.976 fps\nResolution                       : 24 bits\nColorimetry                      : 4:2:0\nScan type                        : Progressive\nBits/(Pixel*Frame)               : 0.389\nStream size                      : 1.22 GiB (91%)\nWriting library                  : XviD 1.2.1 (UTC 2008-12-04)\n\nAudio\nID                               : 1\nFormat                           : AC-3\nFormat/Info                      : Audio Coding 3\nCodec ID                         : 2000\nDuration                         : 1h 27mn\nBit rate mode                    : Constant\nBit rate                         : 192 Kbps\nChannel(s)                       : 2 channels\nChannel positions                : L R\nSampling rate                    : 48.0 KHz\nStream size                      : 120 MiB (9%)\nAlignment                        : Aligned on interleaves\nInterleave, duration             : 32 ms (0.77 video frame)\n\n\n\n &lt;a href=&quot;\nhttp://www.imdb.com/title/tt0118147/&quot; rel=&quot;nofollow&quot; target=&quot;_NEW&quot;&gt;\nhttp://www.imdb.com/title/tt0118147/&lt;/a&gt;\n\n\n\n","torrent":{"xt":"urn:btih:7c5ab4df6802b7e48253c815882e4c5bb4dce9d7","amp;dn":"When+We+Were+Kings+%281996%29","amp;tr":["udp%3A%2F%2Ftracker.openbittorrent.com%3A80","udp%3A%2F%2Fopen.demonii.com%3A1337","udp%3A%2F%2Ftracker.coppersurfer.tk%3A6969","udp%3A%2F%2Fexodus.desync.com%3A6969"],"infoHash":"7c5ab4df6802b7e48253c815882e4c5bb4dce9d7","infoHashBuffer":{"type":"Buffer","data":[124,90,180,223,104,2,183,228,130,83,200,21,136,46,76,91,180,220,233,215]},"announce":[],"urlList":[]}}